<mxfile host="65bd71144e">
    <diagram id="lqaGPUtSHCCzBtoYCuiD" name="PÃ¡gina-1">
        <mxGraphModel dx="584" dy="337" grid="1" gridSize="10" guides="1" tooltips="1" connect="1" arrows="1" fold="1" page="1" pageScale="1" pageWidth="827" pageHeight="1169" math="0" shadow="0">
            <root>
                <mxCell id="0"/>
                <mxCell id="1" parent="0"/>
                <mxCell id="3" value="MAIN APP" style="rounded=1;whiteSpace=wrap;html=1;" vertex="1" parent="1">
                    <mxGeometry x="330" y="70" width="120" height="60" as="geometry"/>
                </mxCell>
                <mxCell id="4" value="FIRST VIEW" style="rounded=1;whiteSpace=wrap;html=1;" vertex="1" parent="1">
                    <mxGeometry x="70" y="200" width="120" height="60" as="geometry"/>
                </mxCell>
                <mxCell id="5" value="SECOND VIEW" style="rounded=1;whiteSpace=wrap;html=1;" vertex="1" parent="1">
                    <mxGeometry x="330" y="200" width="120" height="60" as="geometry"/>
                </mxCell>
                <mxCell id="6" value="THIRD VIEW" style="rounded=1;whiteSpace=wrap;html=1;" vertex="1" parent="1">
                    <mxGeometry x="630" y="200" width="120" height="60" as="geometry"/>
                </mxCell>
                <mxCell id="7" value="&lt;span style=&quot;background-color: rgb(51, 0, 51);&quot;&gt;Cabecera&lt;/span&gt;" style="ellipse;whiteSpace=wrap;html=1;aspect=fixed;" vertex="1" parent="1">
                    <mxGeometry x="115" y="290" width="30" height="30" as="geometry"/>
                </mxCell>
                <mxCell id="8" value="" style="ellipse;whiteSpace=wrap;html=1;aspect=fixed;" vertex="1" parent="1">
                    <mxGeometry x="115" y="330" width="30" height="30" as="geometry"/>
                </mxCell>
                <mxCell id="9" value="" style="ellipse;whiteSpace=wrap;html=1;aspect=fixed;" vertex="1" parent="1">
                    <mxGeometry x="115" y="370" width="30" height="30" as="geometry"/>
                </mxCell>
                <mxCell id="10" value="" style="ellipse;whiteSpace=wrap;html=1;aspect=fixed;" vertex="1" parent="1">
                    <mxGeometry x="115" y="410" width="30" height="30" as="geometry"/>
                </mxCell>
                <mxCell id="11" value="" style="ellipse;whiteSpace=wrap;html=1;aspect=fixed;" vertex="1" parent="1">
                    <mxGeometry x="115" y="450" width="30" height="30" as="geometry"/>
                </mxCell>
                <mxCell id="12" value="" style="ellipse;whiteSpace=wrap;html=1;aspect=fixed;" vertex="1" parent="1">
                    <mxGeometry x="115" y="490" width="30" height="30" as="geometry"/>
                </mxCell>
                <mxCell id="13" value="" style="endArrow=none;html=1;exitX=0.5;exitY=1;exitDx=0;exitDy=0;entryX=0.5;entryY=0;entryDx=0;entryDy=0;" edge="1" parent="1" source="7" target="8">
                    <mxGeometry width="50" height="50" relative="1" as="geometry">
                        <mxPoint x="240" y="370" as="sourcePoint"/>
                        <mxPoint x="290" y="320" as="targetPoint"/>
                    </mxGeometry>
                </mxCell>
                <mxCell id="14" value="" style="endArrow=none;html=1;exitX=0.5;exitY=1;exitDx=0;exitDy=0;entryX=0.5;entryY=0;entryDx=0;entryDy=0;" edge="1" parent="1" source="8" target="9">
                    <mxGeometry width="50" height="50" relative="1" as="geometry">
                        <mxPoint x="220" y="380" as="sourcePoint"/>
                        <mxPoint x="220" y="390" as="targetPoint"/>
                        <Array as="points"/>
                    </mxGeometry>
                </mxCell>
                <mxCell id="15" value="" style="endArrow=none;html=1;exitX=0.5;exitY=1;exitDx=0;exitDy=0;entryX=0.5;entryY=0;entryDx=0;entryDy=0;" edge="1" parent="1" source="9" target="10">
                    <mxGeometry width="50" height="50" relative="1" as="geometry">
                        <mxPoint x="190" y="430" as="sourcePoint"/>
                        <mxPoint x="190" y="440" as="targetPoint"/>
                    </mxGeometry>
                </mxCell>
                <mxCell id="16" value="" style="endArrow=none;html=1;exitX=0.5;exitY=1;exitDx=0;exitDy=0;entryX=0.5;entryY=0;entryDx=0;entryDy=0;" edge="1" parent="1" source="10" target="11">
                    <mxGeometry width="50" height="50" relative="1" as="geometry">
                        <mxPoint x="220" y="420" as="sourcePoint"/>
                        <mxPoint x="220" y="430" as="targetPoint"/>
                    </mxGeometry>
                </mxCell>
                <mxCell id="17" value="" style="endArrow=none;html=1;exitX=0.5;exitY=1;exitDx=0;exitDy=0;entryX=0.5;entryY=0;entryDx=0;entryDy=0;" edge="1" parent="1" source="11" target="12">
                    <mxGeometry width="50" height="50" relative="1" as="geometry">
                        <mxPoint x="230" y="460" as="sourcePoint"/>
                        <mxPoint x="230" y="470" as="targetPoint"/>
                    </mxGeometry>
                </mxCell>
                <mxCell id="19" value="LinKedList&lt;br&gt;Ordenar _Musica" style="text;html=1;strokeColor=none;fillColor=none;align=center;verticalAlign=middle;whiteSpace=wrap;rounded=0;labelBackgroundColor=#330033;" vertex="1" parent="1">
                    <mxGeometry x="5" y="320" width="110" height="30" as="geometry"/>
                </mxCell>
                <mxCell id="20" value="" style="shape=table;html=1;whiteSpace=wrap;startSize=0;container=1;collapsible=0;childLayout=tableLayout;labelBackgroundColor=#330033;" vertex="1" parent="1">
                    <mxGeometry x="350" y="300" width="82" height="10" as="geometry"/>
                </mxCell>
                <mxCell id="21" value="" style="shape=tableRow;horizontal=0;startSize=0;swimlaneHead=0;swimlaneBody=0;top=0;left=0;bottom=0;right=0;collapsible=0;dropTarget=0;fillColor=none;points=[[0,0.5],[1,0.5]];portConstraint=eastwest;labelBackgroundColor=#330033;" vertex="1" parent="20">
                    <mxGeometry width="82" height="10" as="geometry"/>
                </mxCell>
                <mxCell id="22" value="" style="shape=partialRectangle;html=1;whiteSpace=wrap;connectable=0;fillColor=none;top=0;left=0;bottom=0;right=0;overflow=hidden;labelBackgroundColor=#330033;" vertex="1" parent="21">
                    <mxGeometry width="27" height="10" as="geometry">
                        <mxRectangle width="27" height="10" as="alternateBounds"/>
                    </mxGeometry>
                </mxCell>
                <mxCell id="23" value="" style="shape=partialRectangle;html=1;whiteSpace=wrap;connectable=0;fillColor=none;top=0;left=0;bottom=0;right=0;overflow=hidden;labelBackgroundColor=#330033;" vertex="1" parent="21">
                    <mxGeometry x="27" width="28" height="10" as="geometry">
                        <mxRectangle width="28" height="10" as="alternateBounds"/>
                    </mxGeometry>
                </mxCell>
                <mxCell id="24" value="" style="shape=partialRectangle;html=1;whiteSpace=wrap;connectable=0;fillColor=none;top=0;left=0;bottom=0;right=0;overflow=hidden;labelBackgroundColor=#330033;" vertex="1" parent="21">
                    <mxGeometry x="55" width="27" height="10" as="geometry">
                        <mxRectangle width="27" height="10" as="alternateBounds"/>
                    </mxGeometry>
                </mxCell>
                <mxCell id="38" value="" style="shape=table;html=1;whiteSpace=wrap;startSize=0;container=1;collapsible=0;childLayout=tableLayout;labelBackgroundColor=#330033;" vertex="1" parent="1">
                    <mxGeometry x="400" y="350" width="82" height="10" as="geometry"/>
                </mxCell>
                <mxCell id="39" value="" style="shape=tableRow;horizontal=0;startSize=0;swimlaneHead=0;swimlaneBody=0;top=0;left=0;bottom=0;right=0;collapsible=0;dropTarget=0;fillColor=none;points=[[0,0.5],[1,0.5]];portConstraint=eastwest;labelBackgroundColor=#330033;" vertex="1" parent="38">
                    <mxGeometry width="82" height="10" as="geometry"/>
                </mxCell>
                <mxCell id="40" value="" style="shape=partialRectangle;html=1;whiteSpace=wrap;connectable=0;fillColor=none;top=0;left=0;bottom=0;right=0;overflow=hidden;labelBackgroundColor=#330033;" vertex="1" parent="39">
                    <mxGeometry width="27" height="10" as="geometry">
                        <mxRectangle width="27" height="10" as="alternateBounds"/>
                    </mxGeometry>
                </mxCell>
                <mxCell id="41" value="" style="shape=partialRectangle;html=1;whiteSpace=wrap;connectable=0;fillColor=none;top=0;left=0;bottom=0;right=0;overflow=hidden;labelBackgroundColor=#330033;" vertex="1" parent="39">
                    <mxGeometry x="27" width="28" height="10" as="geometry">
                        <mxRectangle width="28" height="10" as="alternateBounds"/>
                    </mxGeometry>
                </mxCell>
                <mxCell id="42" value="" style="shape=partialRectangle;html=1;whiteSpace=wrap;connectable=0;fillColor=none;top=0;left=0;bottom=0;right=0;overflow=hidden;labelBackgroundColor=#330033;" vertex="1" parent="39">
                    <mxGeometry x="55" width="27" height="10" as="geometry">
                        <mxRectangle width="27" height="10" as="alternateBounds"/>
                    </mxGeometry>
                </mxCell>
                <mxCell id="43" value="" style="shape=table;html=1;whiteSpace=wrap;startSize=0;container=1;collapsible=0;childLayout=tableLayout;labelBackgroundColor=#330033;" vertex="1" parent="1">
                    <mxGeometry x="310" y="350" width="82" height="10" as="geometry"/>
                </mxCell>
                <mxCell id="44" value="" style="shape=tableRow;horizontal=0;startSize=0;swimlaneHead=0;swimlaneBody=0;top=0;left=0;bottom=0;right=0;collapsible=0;dropTarget=0;fillColor=none;points=[[0,0.5],[1,0.5]];portConstraint=eastwest;labelBackgroundColor=#330033;" vertex="1" parent="43">
                    <mxGeometry width="82" height="10" as="geometry"/>
                </mxCell>
                <mxCell id="45" value="" style="shape=partialRectangle;html=1;whiteSpace=wrap;connectable=0;fillColor=none;top=0;left=0;bottom=0;right=0;overflow=hidden;labelBackgroundColor=#330033;" vertex="1" parent="44">
                    <mxGeometry width="27" height="10" as="geometry">
                        <mxRectangle width="27" height="10" as="alternateBounds"/>
                    </mxGeometry>
                </mxCell>
                <mxCell id="46" value="" style="shape=partialRectangle;html=1;whiteSpace=wrap;connectable=0;fillColor=none;top=0;left=0;bottom=0;right=0;overflow=hidden;labelBackgroundColor=#330033;" vertex="1" parent="44">
                    <mxGeometry x="27" width="28" height="10" as="geometry">
                        <mxRectangle width="28" height="10" as="alternateBounds"/>
                    </mxGeometry>
                </mxCell>
                <mxCell id="47" value="" style="shape=partialRectangle;html=1;whiteSpace=wrap;connectable=0;fillColor=none;top=0;left=0;bottom=0;right=0;overflow=hidden;labelBackgroundColor=#330033;" vertex="1" parent="44">
                    <mxGeometry x="55" width="27" height="10" as="geometry">
                        <mxRectangle width="27" height="10" as="alternateBounds"/>
                    </mxGeometry>
                </mxCell>
                <mxCell id="48" value="" style="shape=table;html=1;whiteSpace=wrap;startSize=0;container=1;collapsible=0;childLayout=tableLayout;labelBackgroundColor=#330033;" vertex="1" parent="1">
                    <mxGeometry x="220" y="350" width="82" height="10" as="geometry"/>
                </mxCell>
                <mxCell id="49" value="" style="shape=tableRow;horizontal=0;startSize=0;swimlaneHead=0;swimlaneBody=0;top=0;left=0;bottom=0;right=0;collapsible=0;dropTarget=0;fillColor=none;points=[[0,0.5],[1,0.5]];portConstraint=eastwest;labelBackgroundColor=#330033;" vertex="1" parent="48">
                    <mxGeometry width="82" height="10" as="geometry"/>
                </mxCell>
                <mxCell id="50" value="" style="shape=partialRectangle;html=1;whiteSpace=wrap;connectable=0;fillColor=none;top=0;left=0;bottom=0;right=0;overflow=hidden;labelBackgroundColor=#330033;" vertex="1" parent="49">
                    <mxGeometry width="27" height="10" as="geometry">
                        <mxRectangle width="27" height="10" as="alternateBounds"/>
                    </mxGeometry>
                </mxCell>
                <mxCell id="51" value="" style="shape=partialRectangle;html=1;whiteSpace=wrap;connectable=0;fillColor=none;top=0;left=0;bottom=0;right=0;overflow=hidden;labelBackgroundColor=#330033;" vertex="1" parent="49">
                    <mxGeometry x="27" width="28" height="10" as="geometry">
                        <mxRectangle width="28" height="10" as="alternateBounds"/>
                    </mxGeometry>
                </mxCell>
                <mxCell id="52" value="" style="shape=partialRectangle;html=1;whiteSpace=wrap;connectable=0;fillColor=none;top=0;left=0;bottom=0;right=0;overflow=hidden;labelBackgroundColor=#330033;" vertex="1" parent="49">
                    <mxGeometry x="55" width="27" height="10" as="geometry">
                        <mxRectangle width="27" height="10" as="alternateBounds"/>
                    </mxGeometry>
                </mxCell>
                <mxCell id="53" value="" style="shape=table;html=1;whiteSpace=wrap;startSize=0;container=1;collapsible=0;childLayout=tableLayout;labelBackgroundColor=#330033;" vertex="1" parent="1">
                    <mxGeometry x="490" y="350" width="82" height="10" as="geometry"/>
                </mxCell>
                <mxCell id="54" value="" style="shape=tableRow;horizontal=0;startSize=0;swimlaneHead=0;swimlaneBody=0;top=0;left=0;bottom=0;right=0;collapsible=0;dropTarget=0;fillColor=none;points=[[0,0.5],[1,0.5]];portConstraint=eastwest;labelBackgroundColor=#330033;" vertex="1" parent="53">
                    <mxGeometry width="82" height="10" as="geometry"/>
                </mxCell>
                <mxCell id="55" value="" style="shape=partialRectangle;html=1;whiteSpace=wrap;connectable=0;fillColor=none;top=0;left=0;bottom=0;right=0;overflow=hidden;labelBackgroundColor=#330033;" vertex="1" parent="54">
                    <mxGeometry width="27" height="10" as="geometry">
                        <mxRectangle width="27" height="10" as="alternateBounds"/>
                    </mxGeometry>
                </mxCell>
                <mxCell id="56" value="" style="shape=partialRectangle;html=1;whiteSpace=wrap;connectable=0;fillColor=none;top=0;left=0;bottom=0;right=0;overflow=hidden;labelBackgroundColor=#330033;" vertex="1" parent="54">
                    <mxGeometry x="27" width="28" height="10" as="geometry">
                        <mxRectangle width="28" height="10" as="alternateBounds"/>
                    </mxGeometry>
                </mxCell>
                <mxCell id="57" value="" style="shape=partialRectangle;html=1;whiteSpace=wrap;connectable=0;fillColor=none;top=0;left=0;bottom=0;right=0;overflow=hidden;labelBackgroundColor=#330033;" vertex="1" parent="54">
                    <mxGeometry x="55" width="27" height="10" as="geometry">
                        <mxRectangle width="27" height="10" as="alternateBounds"/>
                    </mxGeometry>
                </mxCell>
                <mxCell id="58" value="" style="endArrow=none;html=1;exitX=0.456;exitY=-0.148;exitDx=0;exitDy=0;exitPerimeter=0;entryX=0;entryY=0.5;entryDx=0;entryDy=0;" edge="1" parent="1" source="49" target="21">
                    <mxGeometry width="50" height="50" relative="1" as="geometry">
                        <mxPoint x="420" y="360" as="sourcePoint"/>
                        <mxPoint x="470" y="310" as="targetPoint"/>
                    </mxGeometry>
                </mxCell>
                <mxCell id="59" value="" style="endArrow=none;html=1;exitX=0.511;exitY=-0.01;exitDx=0;exitDy=0;exitPerimeter=0;entryX=0.325;entryY=0.921;entryDx=0;entryDy=0;entryPerimeter=0;" edge="1" parent="1" source="44" target="21">
                    <mxGeometry width="50" height="50" relative="1" as="geometry">
                        <mxPoint x="420" y="360" as="sourcePoint"/>
                        <mxPoint x="470" y="310" as="targetPoint"/>
                    </mxGeometry>
                </mxCell>
                <mxCell id="60" value="" style="endArrow=none;html=1;entryX=0.67;entryY=0.921;entryDx=0;entryDy=0;entryPerimeter=0;exitX=0.498;exitY=-0.148;exitDx=0;exitDy=0;exitPerimeter=0;" edge="1" parent="1" source="39" target="21">
                    <mxGeometry width="50" height="50" relative="1" as="geometry">
                        <mxPoint x="420" y="360" as="sourcePoint"/>
                        <mxPoint x="470" y="310" as="targetPoint"/>
                    </mxGeometry>
                </mxCell>
                <mxCell id="62" value="" style="endArrow=none;html=1;entryX=1;entryY=0.5;entryDx=0;entryDy=0;exitX=0.527;exitY=0.059;exitDx=0;exitDy=0;exitPerimeter=0;" edge="1" parent="1" source="54" target="21">
                    <mxGeometry width="50" height="50" relative="1" as="geometry">
                        <mxPoint x="410" y="470" as="sourcePoint"/>
                        <mxPoint x="460" y="420" as="targetPoint"/>
                    </mxGeometry>
                </mxCell>
                <mxCell id="64" value="B_Tree&lt;br&gt;Mostrar Musicas por filtros y en orden" style="text;html=1;strokeColor=none;fillColor=none;align=center;verticalAlign=middle;whiteSpace=wrap;rounded=0;labelBackgroundColor=#330033;" vertex="1" parent="1">
                    <mxGeometry x="313.5" y="390" width="155" height="30" as="geometry"/>
                </mxCell>
                <mxCell id="65" value="Text" style="text;html=1;strokeColor=none;fillColor=none;align=center;verticalAlign=middle;whiteSpace=wrap;rounded=0;labelBackgroundColor=#330033;" vertex="1" parent="1">
                    <mxGeometry x="290" y="260" width="60" height="30" as="geometry"/>
                </mxCell>
                <mxCell id="66" value="Insertar las musicas del *.csv" style="text;html=1;strokeColor=none;fillColor=none;align=center;verticalAlign=middle;whiteSpace=wrap;rounded=0;labelBackgroundColor=#330033;" vertex="1" parent="1">
                    <mxGeometry x="282" y="150" width="200" height="30" as="geometry"/>
                </mxCell>
                <mxCell id="67" value="Eliminar_CanciÃ³n&lt;br&gt;Agregar_CanciÃ³n" style="text;html=1;strokeColor=none;fillColor=none;align=center;verticalAlign=middle;whiteSpace=wrap;rounded=0;labelBackgroundColor=#330033;" vertex="1" parent="1">
                    <mxGeometry x="640" y="390" width="120" height="30" as="geometry"/>
                </mxCell>
                <mxCell id="68" value="Estruturas" style="html=1;whiteSpace=wrap;shape=isoCube2;backgroundOutline=1;isoAngle=15;labelBackgroundColor=#330033;" vertex="1" parent="1">
                    <mxGeometry x="645" y="270" width="90" height="100" as="geometry"/>
                </mxCell>
                <mxCell id="70" value="&lt;span style=&quot;background-color: rgb(0, 0, 0);&quot;&gt;FOURTH VIEW&lt;/span&gt;" style="rounded=1;whiteSpace=wrap;html=1;labelBackgroundColor=#330033;" vertex="1" parent="1">
                    <mxGeometry x="910" y="200" width="120" height="60" as="geometry"/>
                </mxCell>
                <mxCell id="71" value="&lt;span style=&quot;background-color: rgb(51, 0, 26);&quot;&gt;BST&lt;br&gt;Orden Aleatorio&lt;/span&gt;" style="text;html=1;strokeColor=none;fillColor=none;align=center;verticalAlign=middle;whiteSpace=wrap;rounded=0;labelBackgroundColor=#000000;" vertex="1" parent="1">
                    <mxGeometry x="920" y="390" width="80" height="40" as="geometry"/>
                </mxCell>
                <mxCell id="72" value="" style="ellipse;whiteSpace=wrap;html=1;aspect=fixed;labelBackgroundColor=#330066;" vertex="1" parent="1">
                    <mxGeometry x="960" y="280" width="20" height="20" as="geometry"/>
                </mxCell>
                <mxCell id="73" value="" style="ellipse;whiteSpace=wrap;html=1;aspect=fixed;labelBackgroundColor=#330066;" vertex="1" parent="1">
                    <mxGeometry x="930" y="310" width="20" height="20" as="geometry"/>
                </mxCell>
                <mxCell id="74" value="" style="ellipse;whiteSpace=wrap;html=1;aspect=fixed;labelBackgroundColor=#330066;" vertex="1" parent="1">
                    <mxGeometry x="990" y="310" width="20" height="20" as="geometry"/>
                </mxCell>
                <mxCell id="75" value="" style="ellipse;whiteSpace=wrap;html=1;aspect=fixed;labelBackgroundColor=#330066;" vertex="1" parent="1">
                    <mxGeometry x="890" y="345" width="20" height="20" as="geometry"/>
                </mxCell>
                <mxCell id="77" value="" style="ellipse;whiteSpace=wrap;html=1;aspect=fixed;labelBackgroundColor=#330066;" vertex="1" parent="1">
                    <mxGeometry x="960" y="350" width="20" height="20" as="geometry"/>
                </mxCell>
                <mxCell id="78" value="" style="ellipse;whiteSpace=wrap;html=1;aspect=fixed;labelBackgroundColor=#330066;" vertex="1" parent="1">
                    <mxGeometry x="1040" y="345" width="20" height="20" as="geometry"/>
                </mxCell>
                <mxCell id="79" value="" style="endArrow=none;html=1;entryX=0;entryY=1;entryDx=0;entryDy=0;exitX=1;exitY=0;exitDx=0;exitDy=0;" edge="1" parent="1" source="73" target="72">
                    <mxGeometry width="50" height="50" relative="1" as="geometry">
                        <mxPoint x="830" y="330" as="sourcePoint"/>
                        <mxPoint x="880" y="280" as="targetPoint"/>
                    </mxGeometry>
                </mxCell>
                <mxCell id="80" value="" style="endArrow=none;html=1;entryX=0;entryY=1;entryDx=0;entryDy=0;exitX=1;exitY=0;exitDx=0;exitDy=0;" edge="1" parent="1" source="75" target="73">
                    <mxGeometry width="50" height="50" relative="1" as="geometry">
                        <mxPoint x="830" y="330" as="sourcePoint"/>
                        <mxPoint x="880" y="280" as="targetPoint"/>
                    </mxGeometry>
                </mxCell>
                <mxCell id="81" value="" style="endArrow=none;html=1;entryX=1;entryY=1;entryDx=0;entryDy=0;exitX=0;exitY=0;exitDx=0;exitDy=0;" edge="1" parent="1" source="74" target="72">
                    <mxGeometry width="50" height="50" relative="1" as="geometry">
                        <mxPoint x="830" y="330" as="sourcePoint"/>
                        <mxPoint x="880" y="280" as="targetPoint"/>
                    </mxGeometry>
                </mxCell>
                <mxCell id="82" value="" style="endArrow=none;html=1;entryX=1;entryY=1;entryDx=0;entryDy=0;exitX=0;exitY=0;exitDx=0;exitDy=0;" edge="1" parent="1" source="78" target="74">
                    <mxGeometry width="50" height="50" relative="1" as="geometry">
                        <mxPoint x="830" y="330" as="sourcePoint"/>
                        <mxPoint x="880" y="280" as="targetPoint"/>
                    </mxGeometry>
                </mxCell>
                <mxCell id="83" value="" style="endArrow=none;html=1;entryX=1;entryY=1;entryDx=0;entryDy=0;exitX=0;exitY=0;exitDx=0;exitDy=0;" edge="1" parent="1" source="77" target="73">
                    <mxGeometry width="50" height="50" relative="1" as="geometry">
                        <mxPoint x="830" y="330" as="sourcePoint"/>
                        <mxPoint x="880" y="280" as="targetPoint"/>
                    </mxGeometry>
                </mxCell>
            </root>
        </mxGraphModel>
    </diagram>
</mxfile>